HIERARCHY
ROOT Hips
{
	OFFSET	0.000000	0.000000	0.000000
	CHANNELS 6 Xposition Yposition Zposition Zrotation Xrotation Yrotation
	JOINT LeftUpLeg
	{
		OFFSET	12.830505	-7.049846	-1.643436
		CHANNELS 3 Zrotation Xrotation Yrotation
		JOINT LeftLeg
		{
			OFFSET	0.620834	-39.957502	-1.919341
			CHANNELS 3 Zrotation Xrotation Yrotation
			JOINT LeftFoot
			{
				OFFSET	-0.413890	-44.704761	-3.870325
				CHANNELS 3 Zrotation Xrotation Yrotation
				JOINT LeftFootHeel
				{
					OFFSET	0.164738	-8.918194	-6.555130
					CHANNELS 3 Zrotation Xrotation Yrotation
					End Site
					{
						OFFSET	-0.604053	0.000000	21.044330
					}
				}
			}
		}
	}
	JOINT RightUpLeg
	{
		OFFSET	-12.830505	-7.049846	-1.643436
		CHANNELS 3 Zrotation Xrotation Yrotation
		JOINT RightLeg
		{
			OFFSET	-0.620834	-39.957502	-1.919341
			CHANNELS 3 Zrotation Xrotation Yrotation
			JOINT RightFoot
			{
				OFFSET	0.413890	-44.704761	-3.870325
				CHANNELS 3 Zrotation Xrotation Yrotation
				JOINT RightFootHeel
				{
					OFFSET	-0.164738	-8.918194	-6.555130
					CHANNELS 3 Zrotation Xrotation Yrotation
					End Site
					{
						OFFSET	0.604053	0.000000	21.044330
					}
				}
			}
		}
	}
	JOINT Spine
	{
		OFFSET	0.000000	12.498171	1.820647
		CHANNELS 3 Zrotation Xrotation Yrotation
		JOINT Spine1
		{
			OFFSET	0.000000	7.620000	0.000000
			CHANNELS 3 Zrotation Xrotation Yrotation
			JOINT LeftShoulder
			{
				OFFSET	9.167800	29.136339	-5.551221
				CHANNELS 3 Zrotation Xrotation Yrotation
				JOINT LeftArm
				{
					OFFSET	12.133453	-3.880866	1.461963
					CHANNELS 3 Zrotation Xrotation Yrotation
					JOINT LeftForeArm
					{
						OFFSET	2.507115	-31.664910	-1.069404
						CHANNELS 3 Zrotation Xrotation Yrotation
						JOINT LeftHand
						{
							OFFSET	4.116172	-24.512624	5.009439
							CHANNELS 3 Zrotation Xrotation Yrotation
							End Site
							{
								OFFSET	-0.213136	-10.931856	2.182134
							}
						}
					}
				}
			}
			JOINT RightShoulder
			{
				OFFSET	-9.167800	29.136339	-5.551221
				CHANNELS 3 Zrotation Xrotation Yrotation
				JOINT RightArm
				{
					OFFSET	-12.133453	-3.880866	1.461963
					CHANNELS 3 Zrotation Xrotation Yrotation
					JOINT RightForeArm
					{
						OFFSET	-2.507115	-31.664910	-1.069404
						CHANNELS 3 Zrotation Xrotation Yrotation
						JOINT RightHand
						{
							OFFSET	-4.116172	-24.512624	5.009439
							CHANNELS 3 Zrotation Xrotation Yrotation
							End Site
							{
								OFFSET	0.213136	-10.931856	2.182134
							}
						}
					}
				}
			}
			JOINT Neck
			{
				OFFSET	0.000000	32.926275	-3.635654
				CHANNELS 3 Zrotation Xrotation Yrotation
				JOINT Head
				{
					OFFSET	0.000000	12.481178	4.646143
					CHANNELS 3 Zrotation Xrotation Yrotation
					End Site
					{
						OFFSET	0.000000	17.715205	-2.222063
					}
				}
			}
		}
	}
}
MOTION
Frames:     11
Frame Time: 0.016667
0.000000	103.175464	0.000000	-0.019827	-0.012080	-0.220801	-0.014184	-0.035988	-0.037179	0.021246	0.070152	0.012182	0.012683	-0.021990	0.245791	0.	0.	0.	0.018947	-0.005183	0.183903	-0.009673	0.038775	0.045924	0.010547	-0.021446	-0.009020	0.	0.	0.	-0.000000	0.000001	0.000003	0.002934	0.011346	0.100995	0.040973	0.042675	0.120356	0.059457	0.224742	0.436764	-0.090336	-0.208273	-0.153219	0.033242	-0.222280	0.157341	-0.167281	0.285330	-0.109602	-0.154914	-0.177959	0.489237	0.188777	-0.207192	-0.373865	0.546572	0.124222	0.383886	0.002968	0.309320	-0.160779	0.008732	0.471085	0.404831	
0.000000	103.175464	0.000000	-0.019827	-0.012080	-0.220801	-0.014184	-0.035988	-0.037179	0.021246	0.070152	0.012182	0.012683	-0.021990	0.245791	0.	0.	0.	0.018947	-0.005183	0.183903	-0.009673	0.038775	0.045924	0.010547	-0.021446	-0.009020	0.	0.	0.	-0.000000	0.000001	0.000003	0.002934	0.011346	0.100995	0.039008	0.043820	0.122655	0.061428	0.223592	0.434466	-0.093102	-0.209361	-0.139939	-0.013195	-0.214353	0.139036	-0.167281	0.285330	-0.109602	-0.158464	-0.176247	0.508562	0.188684	-0.257043	-0.387070	0.540546	0.150270	0.383215	-0.014267	0.305085	-0.155652	0.015126	0.476362	0.387301	
0.000000	103.175464	0.000000	-0.019827	-0.012080	-0.220801	-0.014184	-0.035988	-0.037179	0.021246	0.070152	0.012182	0.012683	-0.021990	0.245791	0.	0.	0.	0.018947	-0.005183	0.183903	-0.009673	0.038775	0.045924	0.010547	-0.021446	-0.009020	0.	0.	0.	-0.000000	0.000001	0.000003	0.002934	0.011346	0.100995	0.030775	0.048600	0.132295	0.069689	0.218782	0.424838	-0.108163	-0.216827	-0.127632	-0.047325	-0.199994	0.121710	-0.173920	0.281365	-0.103803	-0.155554	-0.170449	0.522994	0.191766	-0.265936	-0.406441	0.544221	0.108052	0.383473	-0.043869	0.302415	-0.158313	0.033185	0.480159	0.376880	
0.000000	103.175464	0.000000	-0.019827	-0.012080	-0.220801	-0.014184	-0.035988	-0.037179	0.021246	0.070152	0.012182	0.012683	-0.021990	0.245791	0.	0.	0.	0.018947	-0.005183	0.183903	-0.009673	0.038775	0.045924	0.010547	-0.021446	-0.009020	0.	0.	0.	-0.000000	0.000001	0.000003	-0.003209	0.012805	0.101891	0.028032	0.052284	0.141799	0.070899	0.208667	0.413360	-0.118504	-0.222600	-0.117969	-0.058596	-0.185208	0.110140	-0.177129	0.274319	-0.096537	-0.148298	-0.163824	0.526103	0.191902	-0.292034	-0.414715	0.532893	0.097755	0.374151	-0.068561	0.299114	-0.172126	0.047740	0.485123	0.381023	
0.000000	103.175464	0.000000	-0.019827	-0.012080	-0.220801	-0.014184	-0.035988	-0.037179	0.021246	0.070152	0.012182	0.012683	-0.021990	0.245791	0.	0.	0.	0.018947	-0.005183	0.183903	-0.009673	0.038775	0.045924	0.010547	-0.021446	-0.009020	0.	0.	0.	-0.000000	0.000001	0.000003	-0.012556	0.015020	0.103261	0.028491	0.055207	0.150834	0.063915	0.196938	0.400954	-0.123891	-0.226855	-0.116989	-0.051718	-0.172475	0.109707	-0.174457	0.268098	-0.092077	-0.147580	-0.160629	0.519260	0.196860	-0.304521	-0.412126	0.517447	0.083450	0.364880	-0.080868	0.294516	-0.166399	0.051880	0.491587	0.368868	
0.000000	103.175464	0.000000	-0.019827	-0.012080	-0.220801	-0.014184	-0.035988	-0.037179	0.021246	0.070152	0.012182	0.012683	-0.021990	0.245791	0.	0.	0.	0.018947	-0.005183	0.183903	-0.009673	0.038775	0.045924	0.010547	-0.021446	-0.009020	0.	0.	0.	-0.000000	0.000001	0.000003	-0.012556	0.015020	0.103261	0.024432	0.057555	0.155582	0.053319	0.198269	0.394974	-0.134423	-0.243668	-0.117085	-0.047572	-0.166949	0.110109	-0.174457	0.268098	-0.092077	-0.176709	-0.162252	0.535538	0.203597	-0.336897	-0.426989	0.519013	0.094204	0.353517	-0.117139	0.291028	-0.176581	0.084932	0.492095	0.377219	
0.000000	103.175464	0.000000	-0.019827	-0.012080	-0.220801	-0.014184	-0.035988	-0.037179	0.021246	0.070152	0.012182	0.012683	-0.021990	0.245791	0.	0.	0.	0.018947	-0.005183	0.183903	-0.009673	0.038775	0.045924	0.010547	-0.021446	-0.009020	0.	0.	0.	-0.000000	0.000001	0.000003	-0.012556	0.015020	0.103261	0.022373	0.058750	0.157991	0.048301	0.198853	0.391969	-0.140950	-0.252521	-0.117208	-0.052573	-0.161853	0.097935	-0.174457	0.268098	-0.092077	-0.191723	-0.162628	0.548075	0.210703	-0.348909	-0.434814	0.508698	0.099950	0.340355	-0.133902	0.290192	-0.184265	0.099700	0.485900	0.386159	
0.000000	103.175464	0.000000	-0.019827	-0.012080	-0.220801	-0.014184	-0.035988	-0.037179	0.021246	0.070152	0.012182	0.012683	-0.021990	0.245791	0.	0.	0.	0.018947	-0.005183	0.183903	-0.009673	0.038775	0.045924	0.010547	-0.021446	-0.009020	0.	0.	0.	-0.000000	0.000001	0.000003	-0.012556	0.015020	0.103261	0.022373	0.058750	0.157991	0.041391	0.200597	0.391380	-0.161861	-0.268481	-0.118109	-0.053118	-0.144875	0.085026	-0.174457	0.268098	-0.092077	-0.218887	-0.163938	0.565261	0.236040	-0.357116	-0.443089	0.487886	0.083713	0.320908	-0.148722	0.288166	-0.186127	0.112342	0.480050	0.389400	
0.000374	103.176104	0.000179	-0.022838	-0.011000	-0.220591	-0.011169	-0.037056	-0.037394	0.021246	0.070152	0.012182	0.012683	-0.021990	0.245791	0.	0.	0.	0.021963	-0.006252	0.183689	-0.009673	0.038775	0.045924	0.010547	-0.021446	-0.009020	0.	0.	0.	0.000000	-0.000000	-0.000000	-0.009540	0.013951	0.103046	0.022373	0.058750	0.157991	0.021172	0.205699	0.389674	-0.168564	-0.286110	-0.117620	-0.071350	-0.126111	0.081664	-0.174457	0.268098	-0.092077	-0.244133	-0.167440	0.560783	0.255294	-0.421525	-0.421400	0.474576	0.119526	0.294237	-0.171436	0.285131	-0.189293	0.127901	0.456965	0.396987	
0.002639	103.179980	0.001264	-0.040921	-0.004496	-0.219319	0.006938	-0.043490	-0.038668	0.021246	0.070152	0.012182	0.012683	-0.021990	0.245791	0.	0.	0.	0.040070	-0.012686	0.182419	-0.009673	0.038775	0.045924	0.010547	-0.021446	-0.009020	0.	0.	0.	0.000000	0.000001	0.000000	0.007787	0.004449	0.101384	0.023159	0.061817	0.158375	0.001243	0.210728	0.387994	-0.185484	-0.305223	-0.117189	-0.052649	-0.108804	0.088031	-0.173673	0.271164	-0.091682	-0.283379	-0.172882	0.553820	0.290248	-0.475405	-0.406982	0.480326	0.136105	0.286713	-0.203903	0.285373	-0.199835	0.153640	0.432607	0.412581	
0.003012	103.180609	0.001442	-0.043899	-0.003429	-0.219114	0.009920	-0.044547	-0.038872	0.021246	0.070152	0.012182	0.012683	-0.021990	0.245791	0.	0.	0.	0.043052	-0.013743	0.182215	-0.009673	0.038775	0.045924	0.010547	-0.021446	-0.009020	0.	0.	0.	0.000000	0.000000	0.000000	0.007453	-0.009640	0.099535	0.026496	0.074845	0.160015	-0.001930	0.211527	0.387722	-0.204876	-0.314317	-0.117680	-0.034356	-0.115959	0.110708	-0.170342	0.284186	-0.089997	-0.301388	-0.175384	0.550618	0.295347	-0.497429	-0.402380	0.508767	0.140805	0.291954	-0.220976	0.296778	-0.205361	0.170877	0.422847	0.421786	
